<?xml version="1.0" encoding="UTF-8"?>
<svg id="Layer_2" data-name="Layer 2" xmlns="http://www.w3.org/2000/svg" xmlns:xlink="http://www.w3.org/1999/xlink" viewBox="0 0 421.83 88.56">
  <defs>
    <style>
      .cls-1 {
        fill: url(#linear-gradient-2);
      }

      .cls-2 {
        fill: url(#linear-gradient-4);
      }

      .cls-3 {
        fill: url(#linear-gradient-3);
      }

      .cls-4 {
        fill: url(#linear-gradient);
      }
    </style>
    <linearGradient id="linear-gradient" x1="19.61" y1="28.36" x2="19.61" y2="82.65" gradientUnits="userSpaceOnUse">
      <stop offset="0" stop-color="#489bff"/>
      <stop offset="1" stop-color="#3e6bdd"/>
    </linearGradient>
    <linearGradient id="linear-gradient-2" x1="60.81" y1="44.39" x2="60.81" y2="82.78" gradientUnits="userSpaceOnUse">
      <stop offset="0" stop-color="#dd0e49"/>
      <stop offset="1" stop-color="#c4062a"/>
    </linearGradient>
    <linearGradient id="linear-gradient-3" x1="98.17" y1="47.47" x2="247.3" y2="47.47" xlink:href="#linear-gradient"/>
    <linearGradient id="linear-gradient-4" x1="264.11" y1="43.16" x2="421.83" y2="43.16" xlink:href="#linear-gradient-2"/>
  </defs>
  <g id="Layer_1-2" data-name="Layer 1">
    <g>
      <path class="cls-4" d="M30.29,83.3V5.17c0-.31.16-.59.42-.75L37.91.12c.58-.35,1.32.07,1.32.75v86.72c0,.68-.74,1.09-1.32.75l-7.2-4.3c-.26-.16-.42-.44-.42-.75ZM25.85,6.82l-6.24,3.66c-.55.33-.89.92-.89,1.56v25.55h-10.22V15.72c0-1.13-1.31-1.83-2.35-1.26l-5.38,2.95c-.48.26-.77.74-.77,1.26v52.13c0,.52.29,1,.77,1.26l5.38,2.95c1.04.57,2.35-.13,2.35-1.26v-23.95h10.22v26.99c0,.64.34,1.24.89,1.56l6.24,3.66c1.21.71,2.73-.16,2.73-1.56V8.38c0-1.4-1.52-2.27-2.73-1.56Z"/>
      <path class="cls-1" d="M53.61,63.13v17.86c0,.54-.26,1.04-.69,1.33l-1.82,1.22-6.14,4.11-1.32.74c-.5.28-1.07.21-1.48-.09,0,0,0,0-.01-.01-.32-.28-.54-.7-.54-1.22V19.4l11.98,25.99v17.73h.01ZM80,18.76v51.35c0,.59-.32,1.13-.83,1.41l-6.1,3.37c-1.08.6-2.4-.18-2.4-1.41v-27.3l-.03.07v-6.86c.02-.21-.11-.4-.3-.49h-.01c-.13-.06-.26-.09-.39-.09-.37,0-.71.21-.87.57l-.33.75h-.06v.14l-7.33,16.46L41.68,14.05l-.06.03V1.59c0-1.04,1.12-1.69,2.03-1.18l6.78,3.81c.43.24.69.69.69,1.18v7.84c0,.2.1.39.26.5h0c.18.13.42.15.63.07l.09-.04c.5-.2.83-.69.83-1.23v-2.92c0-1.95,2.09-3.08,3.6-1.95l4.12,3.09c.6.45.95,1.17.95,1.95v18.2c0,1.44.99,4.23,2.46,3.93.38-.08.67-.37.81-.73l5.79-15.6,1.05-2.83c.34-.92,1.36-1.38,2.28-1.04l.82.3,4.35,2.4c.51.28.83.83.83,1.41ZM52.93,14.84v-.09l-.07.03s.05.04.07.06Z"/>
    </g>
    <g>
      <path class="cls-3" d="M134.21,60.99c0,.38-.08.61-.24.7-.07.05-.32.1-.75.13-1.09.11-2.63.16-4.62.16-2.81,0-4.46-.05-4.96-.16-.49-.11-.74-.35-.74-.72,0-1.42.07-3.54.2-6.38.13-2.84.2-4.96.2-6.38,0-.7-.2-1.1-.59-1.21-.61-.14-2.78-.21-6.5-.21s-5.93.07-6.55.21c-.39.09-.59.49-.59,1.21,0,1.4.04,3.49.13,6.27.09,2.78.13,4.88.13,6.27,0,.54-.24.85-.72.94-.57.11-2.26.16-5.05.16-2.42,0-3.96-.05-4.62-.16-.52-.09-.78-.37-.78-.83,0-1.93.09-4.85.28-8.76.19-3.9.28-6.83.28-8.78,0-2.08-.09-5.2-.27-9.36-.18-4.16-.27-7.28-.27-9.36,0-.39.19-.59.56-.59.55,0,1.39.03,2.51.08s1.96.08,2.51.08,1.44-.03,2.59-.08c1.16-.05,2.02-.08,2.59-.08.3,0,.46.16.46.48,0,1.34-.1,3.35-.29,6.03-.2,2.68-.29,4.69-.29,6.03,0,.63.17.99.51,1.1.47.14,2.76.21,6.88.21,3.83,0,6.05-.07,6.66-.21.43-.11.64-.47.64-1.1,0-1.29-.06-3.24-.19-5.84-.13-2.61-.19-4.56-.19-5.87,0-.55.22-.83.67-.83.52,0,1.31.03,2.38.08s1.87.08,2.4.08,1.31-.03,2.38-.08,1.87-.08,2.4-.08.78.21.78.64c0,2.06-.08,5.17-.25,9.32-.17,4.15-.25,7.27-.25,9.35,0,1.95.09,4.88.28,8.78.19,3.9.28,6.82.28,8.76ZM165.33,42.67c0,3.47-.11,5.59-.32,6.34-.27.9-2.23,4.14-5.88,9.72-.57.88-2.05,2.91-4.43,6.1-2.63,3.51-4.13,5.36-4.48,5.56-.43.27-3.18.4-8.24.4-.77,0-1.29-.09-1.56-.27-.23-.73-.53-1.6-.89-2.61-.29-.63-.57-1.26-.86-1.91-.41-.93-.62-1.55-.62-1.85,0-.34.15-.51.46-.51,4.98,0,7.47-1.14,7.47-3.41,0-.2-1.22-1.98-3.65-5.34-2.52-3.46-3.91-5.64-4.16-6.55-.14-.52-.21-2.37-.21-5.56,0-.64.02-1.62.05-2.91.04-1.3.05-2.27.05-2.91,0-.47.3-.7.89-.7.91,0,2.3.03,4.15.08,1.85.05,3.24.08,4.15.08.38,0,.56.28.56.83,0,.5-.03,1.26-.08,2.27-.05,1.01-.08,1.77-.08,2.27,0,2.26.04,3.79.11,4.59.05.63.59,1.79,1.61,3.49,1.07,1.77,1.85,2.66,2.34,2.66.41,0,1.11-.88,2.1-2.63.91-1.67,1.41-2.78,1.48-3.36.18-1.58.27-3.29.27-5.13,0-.48-.04-1.22-.13-2.2-.09-.98-.13-1.73-.13-2.23,0-.34.19-.51.56-.51.91,0,2.28-.04,4.09-.11s3.18-.11,4.1-.11c.47,0,.78.23.94.7.25.82.38,2.73.38,5.72ZM198.18,48.9c0,3.83-1.13,7.01-3.38,9.53-2.33,2.61-5.38,3.92-9.16,3.92-1.38,0-2.86-.34-4.43-1.02s-2.29-1.02-2.15-1.02c-.23,0-.35.27-.35.81,0,.91.04,2.29.13,4.12s.13,3.21.13,4.12c0,.57-.3.86-.89.86l-5.48.03c-1.24,0-2.03-.04-2.39-.13-.54-.13-.8-.46-.8-.99l.05-20.68c0-4.17-.31-7.69-.94-10.55-.04-.18-.05-.33-.05-.46,0-.27.11-.45.32-.54.7-.27,2.03-.55,4-.86,1.92-.3,3.3-.46,4.16-.46.7,0,1.1.46,1.2,1.38.1.92.22,1.38.36,1.38-.18,0,.59-.49,2.3-1.46,1.71-.98,3.26-1.46,4.66-1.46,3.89,0,6.99,1.28,9.32,3.84,2.26,2.47,3.38,5.68,3.38,9.64ZM188.22,48.85c0-1.43-.44-2.69-1.32-3.76-.95-1.13-2.12-1.69-3.52-1.69s-2.58.56-3.44,1.69c-.75,1.02-1.13,2.27-1.13,3.76s.39,2.78,1.18,3.79c.84,1.09,2.01,1.64,3.49,1.64,3.15,0,4.73-1.81,4.73-5.42ZM226.27,47.24c0,1.81-.58,2.84-1.75,3.09-.2.04-2.05.23-5.56.59-2.11.23-5.26.51-9.45.83.25,1.16,1.01,2.05,2.28,2.66,1.04.5,2.22.75,3.55.75,1.59,0,3.2-.43,4.81-1.29.68-.43,1.36-.86,2.04-1.29.38.18,1.01,1.09,1.89,2.74.89,1.65,1.33,2.69,1.33,3.14,0,.13-.13.33-.4.62-2.18,2.35-5.58,3.52-10.18,3.52-4.26,0-7.7-1.25-10.31-3.73-2.69-2.52-4.03-5.9-4.03-10.12s1.2-7.49,3.6-10.12c2.47-2.72,5.75-4.08,9.83-4.08,3.44,0,6.36,1.25,8.75,3.76,2.4,2.51,3.6,5.49,3.6,8.94ZM216.87,45.6c0-1.11-.39-2.09-1.18-2.93-.79-.84-1.73-1.26-2.82-1.26s-2.06.47-2.79,1.42c-.68.88-1.02,1.91-1.02,3.09,0,.48.25.72.75.72,1.33,0,3.38-.21,6.18-.62.59-.09.89-.23.89-.43ZM247.03,45.09c0,.7-.38,1.05-1.15,1.05-.34,0-.84-.02-1.49-.07-.65-.04-1.14-.07-1.46-.07-1.49,0-2.5.23-3.03.7-.54.46-.81,1.41-.81,2.82,0,.77.01,1.94.04,3.5.03,1.57.04,2.73.04,3.5,0,.52.04,1.29.11,2.32.07,1.03.11,1.79.11,2.3,0,.43-.29.67-.89.73-.86.07-2.17.11-3.95.11s-3.06-.05-4.08-.16c-.59-.07-.89-.37-.89-.89,0-1.43,0-3.58.03-6.43.02-2.86.03-5,.03-6.43,0-4.21-.38-7.67-1.15-10.39-.04-.16-.05-.3-.05-.4,0-.27.13-.45.4-.54.98-.11,2.43-.3,4.32-.59,2.83-.55,4.29-.83,4.38-.83.32,0,.53.56.62,1.69.09,1.13.25,1.69.48,1.69-.25,0,.48-.47,2.2-1.41,1.72-.94,3.37-1.41,4.97-1.41,1,0,1.5.21,1.5.64,0,.52-.05,1.25-.16,2.2-.11,1.02-.17,1.75-.19,2.2,0,.52,0,1.21.03,2.07.04,1.06.05,1.75.05,2.1Z"/>
      <path class="cls-2" d="M304.15,60.99c0,.55-.26.83-.78.83h-9.51c-.52,0-.78-.31-.78-.94,0-1.81.07-4.52.2-8.14.13-3.62.2-6.33.2-8.14,0-.52-.08-.8-.24-.83-.2.11-1.4,2.87-3.6,8.3-1.29,3.19-2.58,6.36-3.87,9.53-.18.41-.4.65-.67.72-.09.02-.45.03-1.07.03-.93,0-1.49-.18-1.67-.54-.97-1.97-2.24-4.83-3.81-8.59-1.68-3.97-2.95-6.85-3.79-8.62-.04-.09-.12-.19-.24-.29-.12.16-.19.42-.19.78,0,1.75.04,4.39.13,7.89.09,3.51.13,6.14.13,7.9,0,.63-.25.94-.75.94h-8.97c-.36,0-.58-.06-.66-.17-.08-.12-.12-.32-.12-.6,0-1.95.09-4.88.28-8.79.19-3.91.28-6.84.28-8.79,0-2.08-.09-5.97-.27-11.68-.02-1.49-.1-3.7-.24-6.63l-.03-.46c-.02-.36.36-.54,1.13-.54.99,0,2.46-.03,4.43-.09,1.97-.06,3.45-.09,4.43-.09.2,0,.47.38.83,1.13l7.84,17.21c.55,1.16,1.02,1.75,1.4,1.75.2,0,.62-.67,1.26-2.01,1.81-3.76,4.49-9.43,8.03-17,.3-.7.64-1.05.99-1.05.52,0,1.3.03,2.35.08,1.05.05,1.84.08,2.38.08.45,0,1.13-.04,2.05-.13s1.61-.13,2.05-.13c.54,0,.81.21.81.64,0,2.11-.08,5.27-.23,9.47-.15,4.2-.23,7.35-.23,9.47,0,1.95.08,4.88.24,8.78.16,3.9.24,6.82.24,8.76ZM335.95,48.39c0,1.38.08,3.43.24,6.15.16,2.72.24,4.76.24,6.12,0,.72-.31,1.1-.94,1.15-2.22.16-4.76.24-7.63.24-.34,0-.57-.51-.69-1.54-.12-1.03-.25-1.55-.42-1.57-.14.07-.33.22-.56.46-2,2.02-4.15,3.03-6.45,3.03-3.49,0-6.38-1.38-8.67-4.13-2.17-2.58-3.25-5.66-3.25-9.24,0-4.14,1.12-7.47,3.36-9.99,2.33-2.61,5.51-3.92,9.56-3.92,2.81,0,5.03.99,6.66,2.96.07.09.13.13.19.13.16,0,.34-.43.55-1.3.21-.87.45-1.3.74-1.3.66,0,1.92.19,3.79.56,1.77.36,3.04.66,3.81.91.27.11.4.25.4.43,0,.07-.03.26-.08.56-.57,3.24-.86,6.67-.86,10.29ZM327.3,48.55c0-1.52-.48-2.78-1.44-3.77-.96-.99-2.21-1.49-3.75-1.49s-2.78.49-3.73,1.48c-.95.98-1.42,2.25-1.42,3.79,0,1.45.5,2.69,1.5,3.73,1,1.04,2.22,1.56,3.65,1.56,1.52,0,2.77-.5,3.73-1.49.97-.99,1.45-2.26,1.45-3.8ZM359.26,53.95c0,.54-.07,1.35-.2,2.44-.13,1.09-.2,1.89-.2,2.4s-.05.84-.16.98-.4.35-.89.62c-2.31,1.27-4.87,1.91-7.68,1.91-5.17,0-7.76-1.98-7.76-5.93,0-1.18.04-2.96.13-5.33s.13-4.15.13-5.33c0-.79-.46-1.18-1.37-1.18h-.35c-.16.02-.28.03-.35.03-.68,0-1.02-.24-1.02-.73,0-.29.02-.73.07-1.32.04-.59.07-1.03.07-1.32,0-.38-.02-.95-.07-1.72-.04-.77-.07-1.34-.07-1.72s.57-.55,1.72-.59c.64-.02.99-.2,1.05-.54.11-.68.14-1.75.11-3.22-.07-2.31-.11-3.41-.11-3.3,0-2.08.2-3.12.59-3.12.48,0,1.17.11,2.07.32,1.02.23,1.73.37,2.12.4.91.12,2.29.3,4.13.51.45.04.67.19.67.46,0,.72-.06,1.8-.17,3.25-.12,1.45-.17,2.54-.17,3.28,0,.88.26,1.32.78,1.32.63,0,1.58-.03,2.85-.08,1.27-.05,2.23-.08,2.87-.08.39,0,.59.13.59.4,0,.41-.04,1.03-.13,1.85s-.13,1.44-.13,1.85,0,1.06.03,1.88c.02.82.03,1.45.03,1.88,0,.38-.26.56-.78.56-.36,0-.96-.01-1.8-.04-.84-.03-1.44-.04-1.8-.04h-2.01c-.27,0-.4.39-.4,1.18v1.91c.02.86.03,1.5.03,1.91,0,1.5.17,2.54.51,3.12.48.77,1.43,1.15,2.85,1.15.45,0,1.09-.1,1.92-.31.83-.21,1.42-.31,1.76-.31.38,0,.56.2.56.59ZM379.88,45.09c0,.7-.38,1.05-1.15,1.05-.34,0-.84-.02-1.49-.07-.65-.04-1.14-.07-1.46-.07-1.49,0-2.5.23-3.03.7-.54.46-.81,1.41-.81,2.82,0,.77.01,1.94.04,3.5.03,1.57.04,2.73.04,3.5,0,.52.04,1.29.11,2.32.07,1.03.11,1.79.11,2.3,0,.43-.29.67-.89.73-.86.07-2.17.11-3.95.11s-3.06-.05-4.08-.16c-.59-.07-.89-.37-.89-.89,0-1.43,0-3.58.03-6.43.02-2.86.03-5,.03-6.43,0-4.21-.38-7.67-1.15-10.39-.04-.16-.05-.3-.05-.4,0-.27.13-.45.4-.54.98-.11,2.43-.3,4.32-.59,2.83-.55,4.29-.83,4.38-.83.32,0,.53.56.62,1.69.09,1.13.25,1.69.48,1.69-.25,0,.48-.47,2.2-1.41,1.72-.94,3.37-1.41,4.97-1.41,1,0,1.5.21,1.5.64,0,.52-.05,1.25-.16,2.2-.11,1.02-.17,1.75-.19,2.2,0,.52,0,1.21.03,2.07.04,1.06.05,1.75.05,2.1ZM392.96,49.49c0,1.31.03,3.25.08,5.84s.08,4.52.08,5.81c0,.38-.22.6-.67.67-.61.11-1.98.16-4.11.16s-3.53-.05-4.13-.16c-.39-.07-.64-.19-.73-.35-.04-.07-.05-.34-.05-.8,0-1.24.03-3.09.08-5.57.05-2.48.08-4.35.08-5.6,0-5.08-.2-9.13-.59-12.14-.04-.29-.05-.47-.05-.56,0-.36.24-.54.73-.54s1.27.05,2.3.16c1.03.11,1.8.16,2.32.16s1.3-.04,2.34-.13c1.04-.09,1.82-.13,2.34-.13.43,0,.64.18.64.54,0,.07-.02.24-.05.51-.39,3.49-.59,7.54-.59,12.14ZM393.66,29.54c0,3.12-1.75,4.67-5.26,4.67-1.5,0-2.75-.39-3.73-1.18-1.07-.86-1.61-2.02-1.61-3.49s.55-2.54,1.67-3.44c1.02-.82,2.25-1.24,3.68-1.24s2.6.42,3.62,1.26c1.09.9,1.64,2.03,1.64,3.41ZM421.83,61.1c0,.39-.29.63-.89.72-1.06.14-2.17.21-3.36.21-1.25,0-2.3-.07-3.14-.21-.21-.04-.55-.21-.99-.54-.88-1.25-2.21-3.12-4-5.61-.45.54-1.92,2.38-4.4,5.53-.23.32-.56.53-.99.62-.63.14-1.61.21-2.96.21-2.83,0-4.24-.31-4.24-.94,0-.52,0-1.31.03-2.38s.03-1.87.03-2.4c0-.3.16-.63.48-.99,1.4-1.45,3.46-3.64,6.18-6.58-1.25-1.2-2.5-2.4-3.73-3.6-1.99-1.95-2.98-3.11-2.98-3.46v-4.73c0-.47.31-.7.94-.7.72,0,1.79.03,3.21.08,1.42.05,2.49.08,3.21.08.36,0,.69.2.99.59.98,1.31,2.36,2.96,4.14,4.97,1.61-1.95,2.89-3.61,3.84-4.97.27-.36.6-.54.99-.54.75,0,1.87-.04,3.36-.11,1.49-.07,2.61-.11,3.36-.11.63,0,.94.23.94.7v4.73c0,.34-.15.65-.46.94-1.36,1.38-3.38,3.47-6.04,6.28,1.36,1.42,3.37,3.57,6.04,6.47.3.34.46.67.46.99v4.73Z"/>
    </g>
  </g>
</svg>