<?xml version="1.0" encoding="UTF-8"?>
<svg id="Layer_2" data-name="Layer 2" xmlns="http://www.w3.org/2000/svg" xmlns:xlink="http://www.w3.org/1999/xlink" viewBox="0 0 451.67 499.98">
  <defs>
    <style>
      .cls-1 {
        fill: url(#linear-gradient-2);
      }

      .cls-2 {
        fill: url(#linear-gradient);
      }
    </style>
    <linearGradient id="linear-gradient" x1="110.74" y1="160.14" x2="110.74" y2="466.63" gradientUnits="userSpaceOnUse">
      <stop offset="0" stop-color="#489bff"/>
      <stop offset="1" stop-color="#3e6bdd"/>
    </linearGradient>
    <linearGradient id="linear-gradient-2" x1="343.32" y1="250.65" x2="343.32" y2="467.35" gradientUnits="userSpaceOnUse">
      <stop offset="0" stop-color="#dd0e49"/>
      <stop offset="1" stop-color="#c4062a"/>
    </linearGradient>
  </defs>
  <g id="Layer_1-2" data-name="Layer 1">
    <g>
      <path class="cls-2" d="M171.02,470.29V29.17c0-1.73.91-3.33,2.39-4.22L214.04.7c3.28-1.96,7.43.4,7.43,4.22v489.63c0,3.81-4.16,6.17-7.43,4.22l-40.63-24.25c-1.49-.89-2.39-2.49-2.39-4.22ZM145.93,38.49l-35.21,20.67c-3.13,1.84-5.05,5.19-5.05,8.81v144.24h-57.69v-123.47c0-6.36-7.4-10.32-13.28-7.1l-30.36,16.64c-2.7,1.48-4.35,4.18-4.35,7.1v294.32c0,2.92,1.66,5.62,4.35,7.1l30.36,16.64c5.88,3.22,13.28-.73,13.28-7.1v-135.21h57.69v152.41c0,3.62,1.92,6.98,5.05,8.81l35.21,20.67c6.81,4,15.39-.91,15.39-8.81V47.3c0-7.9-8.58-12.81-15.39-8.81Z"/>
      <path class="cls-1" d="M302.67,356.4v100.82c0,3.05-1.46,5.9-3.87,7.52l-10.27,6.88-34.69,23.2-7.43,4.17c-2.84,1.59-6.05,1.16-8.34-.52-.03-.01-.04-.03-.06-.06-1.82-1.56-3.04-3.98-3.04-6.86V109.56l67.64,146.75v100.09h.06ZM451.67,105.89v289.94c0,3.32-1.8,6.37-4.71,7.98l-34.43,19.01c-6.08,3.37-13.53-1.03-13.53-7.98v-154.13l-.15.4v-31.46l.07-7.29c.01-1.19-.67-2.28-1.75-2.78l-.08-.04c-.71-.31-1.46-.46-2.19-.46-2.07,0-4.04,1.19-4.93,3.2l-1.89,4.24h-.34v.77l-41.36,92.91-111.06-240.9-.36.16V8.99c0-5.87,6.31-9.56,11.44-6.69l38.25,21.5c2.43,1.36,3.92,3.92,3.92,6.69v44.28c0,1.13.56,2.18,1.49,2.81h0c1.04.71,2.37.86,3.55.39l.53-.21c2.84-1.13,4.71-3.88,4.71-6.94v-16.51c0-10.99,11.82-17.38,20.34-10.99l23.27,17.45c3.38,2.53,5.38,6.63,5.38,10.99v102.74c0,8.1,5.6,23.88,13.91,22.2,2.13-.43,3.8-2.08,4.56-4.12l32.71-88.1,5.93-15.98c1.92-5.17,7.68-7.8,12.85-5.88l4.62,1.71,24.57,13.56c2.9,1.61,4.71,4.66,4.71,7.98ZM298.84,83.81v-.5l-.4.16c.13.12.28.21.4.34Z"/>
    </g>
  </g>
</svg>